<!DOCTYPE svg PUBLIC "-//W3C//DTD SVG 20010904//EN" "http://www.w3.org/TR/2001/REC-SVG-20010904/DTD/svg10.dtd">
<svg version="1.0" xmlns="http://www.w3.org/2000/svg" width="509px" height="460px" viewBox="0 0 5090 4600" preserveAspectRatio="xMidYMid meet">
<g id="layer1" fill="#ff7f27" stroke="none">
 <path d="M2200 4010 c-558 -69 -1042 -380 -1342 -863 -452 -728 -343 -1698 260 -2304 405 -408 942 -595 1512 -528 763 89 1394 665 1564 1426 233 1048 -435 2070 -1474 2254 -112 19 -410 28 -520 15z m405 -465 c477 -72 862 -356 1083 -800 106 -214 163 -541 133 -770 -64 -485 -328 -882 -740 -1112 -183 -103 -450 -173 -661 -173 -202 0 -459 65 -640 162 -527 280 -837 878 -755 1456 49 342 188 617 431 852 159 153 328 257 525 324 215 71 420 92 624 61z"/>
 </g>

</svg>