<!DOCTYPE svg PUBLIC "-//W3C//DTD SVG 20010904//EN" "http://www.w3.org/TR/2001/REC-SVG-20010904/DTD/svg10.dtd">
<svg version="1.0" xmlns="http://www.w3.org/2000/svg" width="1600px" height="900px" viewBox="0 0 16000 9000" preserveAspectRatio="xMidYMid meet">
<g id="layer1" fill="#eae856" stroke="none">
 <path d="M7153 5726 c-104 -34 -204 -123 -251 -224 -24 -50 -27 -69 -27 -162 0 -97 2 -110 32 -173 41 -86 116 -160 203 -201 59 -27 75 -30 165 -30 107 1 157 15 238 71 35 24 36 27 22 43 -15 17 -19 16 -65 -15 -63 -42 -133 -59 -225 -53 -93 6 -166 40 -228 107 -57 60 -82 111 -96 187 -29 159 53 316 204 389 53 26 70 30 150 29 94 0 154 -18 212 -63 20 -16 29 -18 45 -10 19 10 19 11 2 30 -10 11 -47 34 -82 51 -58 29 -77 33 -161 35 -61 2 -111 -2 -138 -11z"/>
 <path d="M8004 5721 c-101 -46 -165 -141 -163 -245 0 -34 6 -75 12 -93 67 -180 296 -240 439 -114 86 76 116 213 67 315 -27 57 -104 128 -157 144 -59 18 -150 15 -198 -7z m174 -37 c72 -14 143 -97 157 -180 15 -95 -50 -205 -140 -240 -99 -37 -214 0 -272 87 -38 57 -44 157 -14 216 27 54 95 111 140 119 20 3 41 7 46 9 10 3 28 1 83 -11z"/>
 <path d="M8623 5715 c-167 -85 -204 -302 -73 -433 101 -101 261 -108 369 -16 47 40 50 49 19 57 -15 4 -31 -3 -54 -22 -45 -40 -96 -55 -166 -48 -110 10 -185 85 -195 195 -13 142 80 243 222 243 67 0 101 -12 152 -55 26 -22 32 -24 48 -12 18 13 17 15 -16 46 -54 50 -87 63 -174 68 -71 3 -86 1 -132 -23z"/>
 <path d="M7670 5335 l0 -395 25 0 25 0 0 395 0 395 -25 0 -25 0 0 -395z"/>
 <path d="M9090 5385 c0 -338 0 -345 20 -345 19 0 20 7 20 186 l0 186 71 -86 c53 -65 76 -86 95 -86 13 0 24 2 24 6 0 3 -25 36 -55 73 -30 38 -55 72 -55 76 0 4 41 78 90 166 50 87 90 161 90 164 0 3 -11 5 -24 5 -21 0 -36 -21 -108 -150 l-83 -150 -22 28 c-20 25 -22 38 -23 150 0 115 -1 122 -20 122 -20 0 -20 -7 -20 -345z"/>
 </g>
<g id="layer2" fill="#fbfbfb" stroke="none">
 <path d="M14076 7389 c-49 -38 -20 -129 41 -129 36 0 73 38 73 75 0 36 -36 75 -70 75 -10 0 -29 -9 -44 -21z"/>
 <path d="M1280 7248 c-11 -12 -20 -32 -20 -44 0 -24 42 -64 67 -64 19 0 63 45 63 65 0 22 -45 65 -69 65 -11 0 -29 -10 -41 -22z"/>
 <path d="M2527 6972 c-35 -39 -11 -95 41 -95 40 0 62 19 62 53 0 53 -68 81 -103 42z"/>
 <path d="M12776 6924 c-30 -30 -10 -94 30 -94 17 0 54 36 54 53 0 22 -30 57 -50 57 -10 0 -26 -7 -34 -16z"/>
 <path d="M4712 6874 c-24 -17 -30 -62 -10 -82 7 -7 24 -12 38 -12 33 0 50 17 50 51 0 24 -30 59 -50 59 -3 0 -16 -7 -28 -16z"/>
 <path d="M3924 6444 c-35 -53 21 -113 80 -86 58 26 36 112 -29 112 -26 0 -39 -6 -51 -26z"/>
 <path d="M1634 6376 c-102 -45 -76 -196 34 -196 49 0 86 28 102 75 26 79 -59 154 -136 121z"/>
 <path d="M14395 5268 c-31 -18 -44 -40 -45 -75 0 -45 9 -62 41 -78 40 -21 57 -19 90 14 20 20 29 39 29 61 0 22 -9 41 -29 61 -31 31 -54 35 -86 17z"/>
 <path d="M13686 4614 c-19 -18 -21 -45 -4 -62 39 -39 100 17 63 58 -22 24 -38 25 -59 4z"/>
 <path d="M7069 4169 c-175 -26 -274 -221 -195 -383 79 -161 280 -203 424 -88 l23 18 -175 174 c-97 96 -176 177 -176 180 0 4 17 16 38 27 80 45 174 38 245 -19 29 -23 44 -28 64 -23 l26 6 -29 30 c-58 61 -153 92 -245 78z m29 -292 l153 -154 -26 -17 c-36 -23 -119 -31 -175 -16 -96 26 -174 149 -155 247 7 41 31 93 43 93 4 0 76 -69 160 -153z"/>
 <path d="M7679 4169 c-140 -21 -239 -148 -226 -289 15 -173 185 -287 351 -235 30 10 73 33 95 51 l40 34 3 -27 c2 -20 9 -28 23 -28 19 0 20 8 23 243 l2 242 -25 0 c-23 0 -25 -4 -25 -44 l0 -44 -32 30 c-61 57 -140 80 -229 67z m148 -67 c80 -42 113 -101 113 -205 0 -66 -3 -78 -29 -113 -37 -51 -59 -70 -104 -89 -89 -37 -213 0 -270 81 -38 54 -47 144 -23 209 21 53 91 119 144 134 50 14 122 6 169 -17z"/>
 <path d="M9407 4169 c-87 -13 -155 -67 -203 -159 -27 -53 -25 -162 5 -222 43 -89 150 -158 246 -158 51 0 128 27 165 59 l35 30 -172 173 c-95 95 -173 176 -173 180 0 13 76 47 117 54 52 8 120 -11 165 -47 38 -30 62 -36 73 -18 17 27 -87 96 -162 107 -26 4 -69 5 -96 1z m33 -294 l154 -154 -45 -20 c-91 -42 -192 -19 -261 57 -44 48 -62 109 -54 176 5 46 28 96 44 96 4 0 77 -70 162 -155z"/>
 <path d="M8775 3975 c-107 -220 -135 -282 -135 -296 0 -5 9 -9 20 -9 20 0 54 64 163 308 22 50 44 92 47 92 4 0 47 -88 96 -195 84 -185 106 -217 133 -200 5 3 -34 96 -88 208 -53 111 -106 222 -118 247 l-21 45 -97 -200z"/>
 <path d="M3637 4142 c-38 -42 -6 -107 49 -100 19 2 34 13 44 31 13 24 13 30 0 55 -20 34 -68 42 -93 14z"/>
 <path d="M6570 3920 l0 -240 25 0 c22 0 25 4 25 38 l0 39 40 -38 c22 -21 55 -42 73 -47 28 -7 32 -6 35 12 2 11 -1 22 -7 24 -29 10 -79 52 -106 90 -30 44 -30 44 -33 203 l-4 159 -24 0 -24 0 0 -240z"/>
 <path d="M8210 3940 l0 -220 -51 0 c-47 0 -50 -2 -47 -22 3 -20 10 -23 51 -26 l47 -3 0 -100 c0 -92 1 -99 20 -99 18 0 20 8 22 102 l3 102 45 0 c39 1 45 4 48 24 3 20 0 22 -47 22 l-51 0 0 220 c0 213 -1 220 -20 220 -19 0 -20 -7 -20 -220z"/>
 <path d="M8480 3920 c0 -233 1 -240 20 -240 19 0 20 7 20 240 0 233 -1 240 -20 240 -19 0 -20 -7 -20 -240z"/>
 <path d="M8464 3576 c-3 -8 -4 -25 -2 -38 2 -19 9 -23 38 -23 33 0 35 2 35 35 0 32 -3 35 -33 38 -21 2 -34 -2 -38 -12z"/>
 </g>

</svg>